<svg width="166" height="24" fill="none" xmlns="http://www.w3.org/2000/svg"><path d="M8.035 4.713c-.353.262-.53.698-.53 1.309v1.047h3.62v3.491h-3.62v11.694H2.207V10.473H0V6.982h2.207V5.498c0-1.658.53-3.054 1.678-4.014C5.033.524 6.534 0 8.3 0c1.148 0 2.296.175 3.444.61l-.707 4.015c-.794-.261-1.413-.436-1.766-.436-.53.087-.971.262-1.236.524zM21.013 6.633c.883-.524 1.943-.786 3.09-.786v4.8h-.794c-1.236 0-2.296.262-3.09.873-.795.61-1.237 1.396-1.325 2.356v8.204h-5.386V6.109h5.386v2.705a5.636 5.636 0 012.12-2.181zM38.32 7.418c1.236 1.047 1.854 2.444 1.854 4.19v10.56h-5.121V20.16c-1.06 1.31-2.65 2.007-4.768 2.007-1.678 0-3.003-.436-3.974-1.396-.971-.873-1.413-2.095-1.413-3.578 0-1.484.53-2.706 1.59-3.491 1.06-.873 2.56-1.31 4.503-1.31h4.15v-.174c0-.785-.265-1.309-.795-1.745-.53-.437-1.236-.611-2.207-.611-.707 0-1.413.087-2.208.349-.794.175-1.677.524-2.472.96L26.046 7.68c1.325-.61 2.56-1.047 3.709-1.31a16.6 16.6 0 013.708-.435c1.943 0 3.709.436 4.857 1.483zm-4.327 10.648c.618-.35.971-.873 1.148-1.484v-1.397h-3.179c-1.5 0-2.207.524-2.207 1.659 0 .523.176.96.53 1.309.353.349.883.523 1.589.523.795 0 1.501-.261 2.12-.61zM67.46 7.593c1.06 1.134 1.589 2.618 1.589 4.45v10.124H63.75v-8.64c0-.872-.265-1.658-.706-2.181-.442-.524-1.148-.786-1.943-.786-.883 0-1.678.35-2.207 1.047-.53.699-.795 1.571-.795 2.619v7.941h-5.298v-8.64c0-.872-.265-1.658-.706-2.181-.442-.524-1.148-.786-1.943-.786-.883 0-1.678.35-2.207 1.047-.53.699-.795 1.571-.795 2.619v7.941h-5.21V5.935h5.21v2.88c.53-.96 1.236-1.659 2.12-2.095.882-.524 1.853-.698 3.09-.698 1.324 0 2.384.349 3.355.96A4.94 4.94 0 0157.658 9.6c.53-1.222 1.237-2.095 2.208-2.705.971-.611 2.119-.873 3.355-.873 1.766-.087 3.179.436 4.239 1.57zM85.03 8.116c1.414 1.571 2.12 3.666 2.12 6.284v.96H76.024c.265.873.707 1.57 1.325 2.095.618.523 1.413.698 2.296.698.706 0 1.324-.175 2.03-.437.619-.262 1.237-.698 1.767-1.222l2.737 2.706c-.795.96-1.855 1.658-3.002 2.095-1.148.523-2.473.698-3.974.698-1.678 0-3.179-.35-4.503-1.048-1.325-.698-2.296-1.658-2.914-2.792-.706-1.222-1.06-2.618-1.06-4.277 0-1.658.354-3.054 1.06-4.363a7.651 7.651 0 012.914-2.88c1.236-.698 2.737-1.048 4.415-1.048 2.56.262 4.591 1.048 5.916 2.531zm-3.001 4.451c0-.96-.265-1.658-.795-2.269a2.941 2.941 0 00-2.12-.873c-.794 0-1.5.262-2.118.786-.53.524-.972 1.309-1.148 2.269h6.18v.087zM86.356 5.935h5.474l3.267 10.996 3.179-10.996h5.209l3.179 10.996 3.267-10.996h5.298l-6.004 16.232h-5.298l-3.179-10.036-3.09 10.036H92.36L86.356 5.935zM144.544 6.72c.883-.524 1.855-.698 3.003-.698v4.8h-.795c-1.236 0-2.296.262-3.091.873-.794.61-1.236 1.396-1.324 2.356v8.116h-5.298V5.935h5.298v2.967c.618-.96 1.324-1.658 2.207-2.182zM159.73 22.167l-3.444-6.021-1.677 1.658v4.363h-5.386V.087h5.386V11.52l5.209-5.41h6.093l-6.004 6.196 6.092 9.861h-6.269zM130.592 6.894c1.589.699 2.826 1.659 3.709 2.88.883 1.222 1.324 2.619 1.324 4.277s-.441 3.054-1.324 4.276-2.12 2.182-3.709 2.88-3.444 1.047-5.563 1.047c-2.119 0-3.973-.349-5.562-1.047-1.59-.698-2.826-1.658-3.709-2.88s-1.324-2.618-1.324-4.276c0-1.571.441-3.055 1.324-4.277.883-1.221 2.119-2.181 3.709-2.88 1.589-.698 3.443-1.047 5.562-1.047 2.119.087 3.974.35 5.563 1.047zM117.261 20.422c.353.174.618.349.883.698.176.262.265.61.265.96 0 .349-.089.698-.265.96-.177.262-.53.524-.883.698-.353.175-.795.262-1.236.262-.442 0-.883-.087-1.236-.262-.354-.174-.619-.349-.883-.698-.177-.262-.265-.611-.265-.96 0-.35.088-.698.265-.96.176-.262.441-.524.883-.698.353-.175.794-.262 1.236-.262.441.087.883.174 1.236.262z" fill="#fff"/></svg>